<mxfile host="app.diagrams.net" modified="2024-03-25T02:33:11.542Z" agent="Mozilla/5.0 (Windows NT 10.0; Win64; x64) AppleWebKit/537.36 (KHTML, like Gecko) Chrome/122.0.0.0 Safari/537.36 Edg/122.0.0.0" etag="cI5Mdav5p0YTkf-huv6r" version="24.1.0" type="github">
  <diagram name="Page-1" id="c4acf3e9-155e-7222-9cf6-157b1a14988f">
    <mxGraphModel dx="946" dy="673" grid="1" gridSize="10" guides="1" tooltips="1" connect="1" arrows="1" fold="1" page="1" pageScale="1" pageWidth="850" pageHeight="1100" background="none" math="0" shadow="0">
      <root>
        <mxCell id="0" />
        <mxCell id="1" parent="0" />
        <mxCell id="JXgL-n5sHx42IAbP0t7--1" value="用户" style="shape=umlActor;verticalLabelPosition=bottom;verticalAlign=top;html=1;outlineConnect=0;strokeWidth=2;fontSize=20;" vertex="1" parent="1">
          <mxGeometry x="410" y="320" width="30" height="60" as="geometry" />
        </mxCell>
        <mxCell id="JXgL-n5sHx42IAbP0t7--5" value="完整解读文章" style="ellipse;whiteSpace=wrap;html=1;strokeWidth=2;fontSize=20;" vertex="1" parent="1">
          <mxGeometry x="460" y="160" width="130" height="70" as="geometry" />
        </mxCell>
        <mxCell id="JXgL-n5sHx42IAbP0t7--6" value="批注式解读" style="ellipse;whiteSpace=wrap;html=1;strokeWidth=2;fontSize=20;" vertex="1" parent="1">
          <mxGeometry x="520" y="260" width="120" height="60" as="geometry" />
        </mxCell>
        <mxCell id="JXgL-n5sHx42IAbP0t7--7" value="点赞评论" style="ellipse;whiteSpace=wrap;html=1;strokeWidth=2;fontSize=20;" vertex="1" parent="1">
          <mxGeometry x="520" y="380" width="100" height="60" as="geometry" />
        </mxCell>
        <mxCell id="JXgL-n5sHx42IAbP0t7--8" value="转发文章" style="ellipse;whiteSpace=wrap;html=1;strokeWidth=2;fontSize=20;" vertex="1" parent="1">
          <mxGeometry x="480" y="480" width="100" height="60" as="geometry" />
        </mxCell>
        <mxCell id="JXgL-n5sHx42IAbP0t7--9" value="" style="endArrow=none;dashed=1;html=1;rounded=0;fontSize=20;strokeWidth=2;" edge="1" parent="1" source="JXgL-n5sHx42IAbP0t7--1" target="JXgL-n5sHx42IAbP0t7--5">
          <mxGeometry width="50" height="50" relative="1" as="geometry">
            <mxPoint x="400" y="370" as="sourcePoint" />
            <mxPoint x="450" y="320" as="targetPoint" />
          </mxGeometry>
        </mxCell>
        <mxCell id="JXgL-n5sHx42IAbP0t7--10" value="" style="endArrow=none;dashed=1;html=1;rounded=0;entryX=0.333;entryY=0.922;entryDx=0;entryDy=0;entryPerimeter=0;fontSize=20;strokeWidth=2;" edge="1" parent="1" source="JXgL-n5sHx42IAbP0t7--1" target="JXgL-n5sHx42IAbP0t7--6">
          <mxGeometry width="50" height="50" relative="1" as="geometry">
            <mxPoint x="400" y="370" as="sourcePoint" />
            <mxPoint x="450" y="320" as="targetPoint" />
          </mxGeometry>
        </mxCell>
        <mxCell id="JXgL-n5sHx42IAbP0t7--11" value="" style="endArrow=none;dashed=1;html=1;rounded=0;entryX=0.06;entryY=0.267;entryDx=0;entryDy=0;entryPerimeter=0;fontSize=20;strokeWidth=2;" edge="1" parent="1" source="JXgL-n5sHx42IAbP0t7--1" target="JXgL-n5sHx42IAbP0t7--7">
          <mxGeometry width="50" height="50" relative="1" as="geometry">
            <mxPoint x="400" y="370" as="sourcePoint" />
            <mxPoint x="450" y="320" as="targetPoint" />
          </mxGeometry>
        </mxCell>
        <mxCell id="JXgL-n5sHx42IAbP0t7--12" value="" style="endArrow=none;dashed=1;html=1;rounded=0;fontSize=20;strokeWidth=2;" edge="1" parent="1" source="JXgL-n5sHx42IAbP0t7--1" target="JXgL-n5sHx42IAbP0t7--8">
          <mxGeometry width="50" height="50" relative="1" as="geometry">
            <mxPoint x="400" y="370" as="sourcePoint" />
            <mxPoint x="450" y="320" as="targetPoint" />
          </mxGeometry>
        </mxCell>
      </root>
    </mxGraphModel>
  </diagram>
</mxfile>
